<?xml version="1.0" encoding="UTF-8"?>
<svg id="Layer_2" data-name="Layer 2" xmlns="http://www.w3.org/2000/svg" viewBox="0 0 558.82 127.56">
  <defs>
    <style>
      .cls-1 {
        fill: #ffc14d;
      }
    </style>
  </defs>
  <g id="Layer_1-2" data-name="Layer 1">
    <g>
      <circle class="cls-1" cx="549.82" cy="117" r="9"/>
      <polygon class="cls-1" points="83.47 127.56 0 17.02 137.47 0 83.47 127.56"/>
      <path class="cls-1" d="m106.28,71.19c26.54,13.13,54.27,26.28,83.81,30.74,14.97,2.26,30.07,2.44,44.88-1.1s27.09-10.57,38.9-19.21c11.42-8.34,22.37-17.6,35.35-23.48.43-.19.86-.38,1.28-.57.95-.43-.49.19-.54.23.61-.47,1.88-.75,2.6-1.01,1.62-.6,3.26-1.16,4.92-1.66,3.39-1.04,6.85-1.87,10.34-2.5.79-.14,1.57-.27,2.36-.4.11-.02.98-.07,1.02-.15-.13.26-1.76.21-.36.05,1.82-.2,3.63-.39,5.45-.52,3.43-.23,6.88-.3,10.31-.21s6.93.33,10.38.71c.81.09,1.62.19,2.43.29,1.32.16-1.63-.25-.31-.04.35.06.69.1,1.04.15,1.85.28,3.7.6,5.54.95,6.98,1.33,13.86,3.14,20.62,5.3,3.4,1.09,6.78,2.26,10.12,3.52,1.67.63,3.33,1.27,4.99,1.94.77.31,1.54.62,2.31.94.44.18.88.35,1.31.55-.66-.3-1.12-.48-.19-.07,6.78,2.93,13.45,6.09,20.07,9.36,26.6,13.14,52.61,28.13,81.12,36.86,3.43,1.05,6.88,1.99,10.37,2.83,4.57,1.1,9.97-1.44,11.07-6.29s-1.39-9.89-6.29-11.07c-6.97-1.69-13.83-3.81-20.57-6.27-3.38-1.24-6.73-2.56-10.07-3.93-1.56-.64-.14-.05.15.07-.45-.18-.89-.38-1.33-.57-.78-.33-1.55-.67-2.32-1.01-1.66-.73-3.31-1.47-4.96-2.23-13.29-6.08-26.22-12.91-39.25-19.52-26.73-13.56-54.1-25.86-84.13-29.56-14.2-1.75-28.84-1.15-42.72,2.51s-26.73,11.06-38.48,19.74c-5.77,4.26-11.42,8.69-17.32,12.78-2.87,1.99-5.79,3.9-8.81,5.65s-6.19,3.75-9.46,4.77c.07-.02,1.48-.59.51-.22-.44.17-.87.35-1.31.52-.76.3-1.53.58-2.31.85-1.75.62-3.52,1.18-5.31,1.68-3.31.93-6.68,1.67-10.08,2.21-.34.05-.68.1-1.02.15-1.3.22,1.66-.19.36-.04-.79.09-1.59.19-2.38.27-1.82.18-3.64.31-5.47.39-3.44.15-6.89.12-10.33-.06-1.62-.09-3.23-.21-4.85-.36-.81-.08-1.62-.16-2.43-.25-.46-.05-.93-.12-1.39-.17-1.15-.12,1.72.26-.04,0-3.5-.53-6.98-1.14-10.44-1.89-7.07-1.53-14.03-3.54-20.88-5.85-3.49-1.18-6.94-2.44-10.38-3.76-1.61-.62-3.22-1.25-4.82-1.9-.92-.37-1.83-.75-2.74-1.12-.34-.14-.68-.29-1.03-.43-1.01-.42,1.35.58-.24-.1-6.79-2.93-13.52-6.01-20.19-9.21-3.29-1.58-6.57-3.19-9.84-4.81-4.21-2.08-9.94-1.27-12.31,3.23-2.15,4.06-1.28,10.09,3.23,12.31h0Z"/>
    </g>
  </g>
</svg>