<?xml version="1.0" encoding="UTF-8"?>
<svg id="Layer_2" data-name="Layer 2" xmlns="http://www.w3.org/2000/svg" viewBox="0 0 272.07 509.49">
  <defs>
    <style>
      .cls-1 {
        fill: #ffc14d;
      }
    </style>
  </defs>
  <g id="Layer_1-2" data-name="Layer 1">
    <path class="cls-1" d="m60.09,118.22c-6.5,20.83-7.2,43.25-2.7,64.56,4.35,20.6,14.09,39.72,27.83,55.63s29.75,26.7,48.13,34.38c20.34,8.5,44.28,12.35,65.06,3.33,9.24-4.01,17.52-11.66,22.11-20.65,5.24-10.26,6.1-21.84,1.1-32.35-4.17-8.76-13.09-16.1-22.62-18.14-5.12-1.09-10.67-1.09-15.6.84-5.52,2.17-10.34,5.58-14.04,10.25-7.23,9.13-11.03,20.09-12.15,31.62-1,10.32.72,20.97,3.62,30.87,6.11,20.86,17.44,39.63,27.9,58.51,5.41,9.77,10.53,19.7,15.33,29.79,2.4,5.04,4.73,10.12,6.97,15.23.52,1.18,1.03,2.36,1.54,3.55.3.69.59,1.38.89,2.07.13.3.25.59.38.89.49,1.16-.64-1.53-.16-.37,1.07,2.58,2.14,5.16,3.18,7.75,8.33,20.73,15.39,41.96,21.13,63.55,1.41,5.29,2.73,10.61,3.98,15.94,1.07,4.59,6.57,7.74,11.07,6.29,4.79-1.55,7.44-6.16,6.29-11.07-9.82-41.96-24.62-82.74-43.82-121.32-9.18-18.44-20.2-35.91-29.08-54.49-1.05-2.21-2.07-4.43-3.05-6.67-.21-.49-1.2-2.27-.05-.09-.28-.52-.47-1.13-.69-1.68-.53-1.3-1.04-2.61-1.53-3.93-1.72-4.6-3.21-9.3-4.34-14.08-.52-2.23-.97-4.48-1.31-6.74l-.08-.56c-.14-.98-.11-.75.1.71.04-.52-.14-1.16-.19-1.68-.11-1.11-.2-2.23-.26-3.35-.11-2.21-.12-4.43,0-6.64.06-1.1.17-2.2.27-3.29.18-2-.37,2.19-.03.21.12-.73.24-1.45.38-2.17.43-2.18.99-4.34,1.69-6.45.18-.53.36-1.07.56-1.59.11-.3.68-1.28.62-1.59l-.46,1.1c.15-.35.31-.7.47-1.05.32-.7.66-1.4,1.02-2.09.51-.98,1.04-1.95,1.62-2.89.46-.74,1.66-1.9,1.84-2.72l-.74.95c.23-.28.46-.57.69-.84.35-.41.72-.82,1.09-1.21s.76-.78,1.15-1.15c.26-.25.53-.49.8-.72.73-.6.54-.47-.56.39.92-.37,1.81-1.26,2.7-1.75.37-.2,1.16-.42,1.45-.72l-1.15.49c.29-.11.59-.22.89-.31.74-.24,1.48-.4,2.24-.57,1.72-.4-2.34.15-.59.08.6-.02,1.2-.07,1.81-.06.45,0,.9.05,1.35.07,1.76.08-2.32-.46-.6-.08.89.19,1.78.38,2.65.66.44.14.87.3,1.3.46,1.66.58-2.02-1-.45-.18.97.51,1.93,1,2.84,1.6.39.26.77.53,1.16.8,1.46,1.01-1.65-1.44-.34-.24.7.64,1.41,1.26,2.07,1.94.33.34.65.69.96,1.05.54.63.95,1.76-.22-.34.54.96,1.26,1.82,1.8,2.78.23.41.45.83.66,1.26.39.81.39,1.86-.15-.42.21.9.64,1.78.87,2.69.12.46.2.92.31,1.38.41,1.76-.17-2.33-.05-.52.08,1.2.15,2.39.1,3.6-.02.51-.07,1.02-.1,1.53-.12,1.9.41-2.24.05-.38-.16.83-.33,1.66-.54,2.48-.26.99-.61,1.94-.93,2.91-.6,1.78.94-1.96.12-.26-.3.62-.58,1.24-.91,1.84-.48.91-1.01,1.8-1.57,2.67-.28.44-.58.86-.88,1.29l-.31.42c-.56.75-.41.56.45-.58-.77.59-1.39,1.65-2.06,2.36-.84.89-1.73,1.74-2.65,2.54-.4.35-.8.68-1.21,1.01-1.46,1.23,1.73-1.2.15-.13-.87.59-1.72,1.19-2.62,1.73s-1.81,1.04-2.75,1.51c-.2.1-1.34.48-1.41.67,1.21-.5,1.35-.56.44-.19-.38.15-.76.3-1.15.44-2.3.84-4.67,1.5-7.08,1.98-.6.12-1.2.23-1.81.33l-.61.1c-1,.15-.81.12.57-.07-.15.19-1.59.17-1.84.19-.82.07-1.64.13-2.46.17-2.27.11-4.55.09-6.82-.03-1.24-.07-2.49-.16-3.73-.29-.47-.05-1.44.01-1.86-.21,1.36.19,1.54.21.54.07-.41-.06-.82-.12-1.23-.19-4.76-.77-9.47-1.91-14.08-3.33-2.06-.63-4.11-1.33-6.13-2.08-1.01-.38-2.02-.76-3.02-1.17-.54-.22-2.25-1.07.16.08-.65-.31-1.32-.57-1.98-.86-3.94-1.76-7.79-3.74-11.51-5.92s-7.64-4.76-11.24-7.46c-.43-.32-.85-.68-1.29-.98,2.14,1.45.58.44.12.08-.84-.67-1.68-1.36-2.51-2.05-1.79-1.51-3.53-3.07-5.23-4.67-3.26-3.09-6.36-6.37-9.25-9.81-.69-.83-1.38-1.66-2.05-2.51-.41-.52-1.2-2,.08.12-.27-.45-.66-.87-.97-1.29-1.29-1.73-2.52-3.5-3.71-5.31-2.58-3.92-4.91-8-6.98-12.22-.52-1.06-1.03-2.14-1.52-3.22-.24-.54-.48-1.08-.72-1.63-.85-1.91.76,1.91-.02-.03-.95-2.39-1.87-4.78-2.69-7.22-1.57-4.69-2.84-9.47-3.82-14.32-.43-2.13-.78-4.28-1.11-6.43s.25,2.14,0,.04c-.07-.59-.14-1.18-.21-1.77-.15-1.38-.28-2.75-.38-4.13-.37-4.93-.44-9.88-.2-14.82.12-2.37.3-4.73.56-7.09.06-.59.14-1.18.21-1.77.24-2.1-.33,2.13,0,.04.21-1.37.42-2.73.67-4.1.85-4.67,2-9.28,3.41-13.81s-1.66-10.02-6.29-11.07c-4.89-1.11-9.57,1.47-11.07,6.29h0Z"/>
    <circle class="cls-1" cx="263.07" cy="500.49" r="9"/>
    <polygon class="cls-1" points="95 0 0 100.81 134.8 132.67 95 0"/>
  </g>
</svg>